# xmcd
#
# Track frame offsets:
#	150
#	19443
#	37529
#
# Disc length: 696 seconds
#
# Revision: 1
# Processed by: cddbd v1.5.2PL0 Copyright (c) Steve Scherf et al.
# Submitted via: EasyCDDAExtractor 12.0.4.1
#
DISCID=1702b603
DTITLE=ภัครมัย โปตระนันทร์ - 111
DYEAR=2003
DGENRE=pop
TTITLE0=รักมากเลย
TTITLE1=เดี๋ยวเหอะ
TTITLE2=ฉันโกรธ
EXTD=YEAR: 2003\n
EXTT0=
EXTT1=
EXTT2=
PLAYORDER=
